HIERARCHY
ROOT hip
{
  OFFSET 0 0 0
  CHANNELS 6 Xposition Yposition Zposition Zrotation Yrotation Xrotation
  JOINT abdomen
  {
    OFFSET 0 20.6881 -0.73152
    CHANNELS 3 Zrotation Xrotation Yrotation
    JOINT chest
    {
      OFFSET 0 11.7043 -0.48768
      CHANNELS 3 Zrotation Xrotation Yrotation
      JOINT neck
      {
        OFFSET 0 22.1894 -2.19456
        CHANNELS 3 Zrotation Xrotation Yrotation
        JOINT head
        {
          OFFSET -0.24384 7.07133 1.2192
          CHANNELS 3 Zrotation Xrotation Yrotation
          JOINT leftEye
          {
            OFFSET 4.14528 8.04674 8.04672
            CHANNELS 3 Zrotation Xrotation Yrotation
            End Site
            {
              OFFSET 1 0 0
            }
          }
          JOINT rightEye
          {
            OFFSET -3.6576 8.04674 8.04672
            CHANNELS 3 Zrotation Xrotation Yrotation
            End Site
            {
              OFFSET 1 0 0
            }
          }
        }
      }
      JOINT rCollar
      {
        OFFSET -2.68224 19.2634 -4.8768
        CHANNELS 3 Zrotation Xrotation Yrotation
        JOINT rShldr
        {
          OFFSET -8.77824 -1.95073 1.46304
          CHANNELS 3 Zrotation Xrotation Yrotation
          JOINT rForeArm
          {
            OFFSET -28.1742 -1.7115 0.48768
            CHANNELS 3 Zrotation Xrotation Yrotation
            JOINT rHand
            {
              OFFSET -22.5879 0.773209 7.07136
              CHANNELS 3 Zrotation Xrotation Yrotation
              JOINT rThumb1
              {
                OFFSET -1.2192 -0.487915 3.41376
                CHANNELS 3 Zrotation Xrotation Yrotation
                JOINT rThumb2
                {
                  OFFSET -3.37035 -0.52449 3.41376
                  CHANNELS 3 Zrotation Xrotation Yrotation
                  End Site
                  {
                    OFFSET -1.78271 -1.18214 1.43049
                  }
                }
              }
              JOINT rIndex1
              {
                OFFSET -7.75947 0.938293 5.60832
                CHANNELS 3 Zrotation Xrotation Yrotation
                JOINT rIndex2
                {
                  OFFSET -2.54057 -0.884171 1.56538
                  CHANNELS 3 Zrotation Xrotation Yrotation
                  End Site
                  {
                    OFFSET -1.62519 -0.234802 1.16502
                  }
                }
              }
              JOINT rMid1
              {
                OFFSET -8.24714 1.18213 3.41376
                CHANNELS 3 Zrotation Xrotation Yrotation
                JOINT rMid2
                {
                  OFFSET -3.10165 -0.590103 1.0647
                  CHANNELS 3 Zrotation Xrotation Yrotation
                  End Site
                  {
                    OFFSET -2.48547 -0.328903 0.83742
                  }
                }
              }
              JOINT rRing1
              {
                OFFSET -8.82822 0.546677 1.51678
                CHANNELS 3 Zrotation Xrotation Yrotation
                JOINT rRing2
                {
                  OFFSET -2.60934 -0.819778 -0.0198488
                  CHANNELS 3 Zrotation Xrotation Yrotation
                  End Site
                  {
                    OFFSET -2.33842 -0.294052 0.168128
                  }
                }
              }
              JOINT rPinky1
              {
                OFFSET -8.27202 -0.0477905 -0.4584
                CHANNELS 3 Zrotation Xrotation Yrotation
                JOINT rPinky2
                {
                  OFFSET -1.82734 -0.647385 -0.700984
                  CHANNELS 3 Zrotation Xrotation Yrotation
                  End Site
                  {
                    OFFSET -1.69225 -0.51767 -0.607171
                  }
                }
              }
            }
          }
        }
      }
      JOINT lCollar
      {
        OFFSET 2.68224 19.2634 -4.8768
        CHANNELS 3 Zrotation Xrotation Yrotation
        JOINT lShldr
        {
          OFFSET 8.77824 -1.95073 1.46304
          CHANNELS 3 Zrotation Xrotation Yrotation
          JOINT lForeArm
          {
            OFFSET 28.1742 -1.7115 0.48768
            CHANNELS 3 Zrotation Xrotation Yrotation
            JOINT lHand
            {
              OFFSET 22.5879 0.773209 7.07136
              CHANNELS 3 Zrotation Xrotation Yrotation
              JOINT lThumb1
              {
                OFFSET 1.2192 -0.487915 3.41376
                CHANNELS 3 Zrotation Xrotation Yrotation
                JOINT lThumb2
                {
                  OFFSET 3.37035 -0.52449 3.41376
                  CHANNELS 3 Zrotation Xrotation Yrotation
                  End Site
                  {
                    OFFSET 1.78271 -1.18214 1.43049
                  }
                }
              }
              JOINT lIndex1
              {
                OFFSET 7.75947 0.938293 5.60832
                CHANNELS 3 Zrotation Xrotation Yrotation
                JOINT lIndex2
                {
                  OFFSET 2.54057 -0.884171 1.56538
                  CHANNELS 3 Zrotation Xrotation Yrotation
                  End Site
                  {
                    OFFSET 1.62519 -0.234802 1.16502
                  }
                }
              }
              JOINT lMid1
              {
                OFFSET 8.24714 1.18213 3.41376
                CHANNELS 3 Zrotation Xrotation Yrotation
                JOINT lMid2
                {
                  OFFSET 3.10165 -0.590103 1.0647
                  CHANNELS 3 Zrotation Xrotation Yrotation
                  End Site
                  {
                    OFFSET 2.48547 -0.328903 0.83742
                  }
                }
              }
              JOINT lRing1
              {
                OFFSET 8.82822 0.546677 1.51678
                CHANNELS 3 Zrotation Xrotation Yrotation
                JOINT lRing2
                {
                  OFFSET 2.60934 -0.819778 -0.0198488
                  CHANNELS 3 Zrotation Xrotation Yrotation
                  End Site
                  {
                    OFFSET 2.33842 -0.294052 0.168128
                  }
                }
              }
              JOINT lPinky1
              {
                OFFSET 8.27202 -0.0477905 -0.4584
                CHANNELS 3 Zrotation Xrotation Yrotation
                JOINT lPinky2
                {
                  OFFSET 1.82734 -0.647385 -0.700984
                  CHANNELS 3 Zrotation Xrotation Yrotation
                  End Site
                  {
                    OFFSET 1.69225 -0.51767 -0.607171
                  }
                }
              }
            }
          }
        }
      }
    }
  }
  JOINT rButtock
  {
    OFFSET -8.77824 4.35084 1.2192
    CHANNELS 3 Zrotation Xrotation Yrotation
    JOINT rThigh
    {
      OFFSET 0 -1.70687 -2.19456
      CHANNELS 3 Zrotation Xrotation Yrotation
      JOINT rShin
      {
        OFFSET 0 -36.8199 0.73152
        CHANNELS 3 Zrotation Xrotation Yrotation
        JOINT rFoot
        {
          OFFSET 0.73152 -45.1104 -5.12064
          CHANNELS 3 Zrotation Xrotation Yrotation
          End Site
          {
            OFFSET -1.1221 -3.69964 12.103
          }
        }
      }
    }
  }
  JOINT lButtock
  {
    OFFSET 8.77824 4.35084 1.2192
    CHANNELS 3 Zrotation Xrotation Yrotation
    JOINT lThigh
    {
      OFFSET 0 -1.70687 -2.19456
      CHANNELS 3 Zrotation Xrotation Yrotation
      JOINT lShin
      {
        OFFSET 0 -36.8199 0.73152
        CHANNELS 3 Zrotation Xrotation Yrotation
        JOINT lFoot
        {
          OFFSET -0.73152 -45.1104 -5.12064
          CHANNELS 3 Zrotation Xrotation Yrotation
          End Site
          {
            OFFSET 1.1221 -3.69964 12.103
          }
        }
      }
    }
  }
}
MOTION
Frames:	5
Frame Time:	0.00833333
83.9082 78.6197 -47.285 -0.0 -0.0 0.0 0.0 0.0 0.0 0.0 -0.0 -0.0 0.245875 19.608241 -158.802917 7.579128 18.139248 157.548848 -0.0 -0.0 0.0 -0.0 -0.0 0.0 -80.1661 68.371792 83.260848 -68.490558 86.569819 87.996719 92.866703 72.430148 -102.3471 -104.089117 74.164165 84.190438 -7.351256 7.062242 1.570266 0.031356 1.138476 4.664476 -140.164771 2.326489 115.87806 3.720366 30.304558 -6.012556 -89.835461 60.702148 81.262754 -9.226876 34.240706 5.752114 -0.008222 -0.831553 -0.261319 -166.66871 -19.460974 173.9035 -113.837232 -39.284327 -111.847609 1.384239 -8.575191 -2.095073 80.1661 68.371792 -83.260848 156.024567 0.011119 -179.053862 -15.21554 57.167065 10.297829 12.038146 34.69316 -2.539263 166.631339 -4.304864 -89.77151 -176.807459 -19.361866 -92.488317 166.821797 -43.973781 -122.061691 57.361108 53.722806 -53.236156 -37.459372 -72.537098 -11.712209 -1.93842 0.734772 -3.25912 0.006679 3.473835 -1.091901 15.408923 62.122796 -17.343909 12.838601 -24.809282 12.207062 116.75998 -43.773001 114.288085 -0.0 0.0 0.0 -0.0 -0.0 -0.0 2.512346 0.127625 22.075435 -170.760998 -33.401906 36.22695 -0.0 0.0 0.0 -0.0 -0.0 -0.0 -2.512346 0.127625 -22.075435 170.760998 -33.401906 -36.22695
83.5638 79.0574 -47.3328 -0.0 -0.0 0.0 0.0 0.0 0.0 0.0 -0.0 -0.0 0.245875 19.608241 -158.802917 7.579128 18.139248 157.548848 -0.0 0.0 -0.0 -0.0 0.0 -0.0 -80.1661 68.371792 83.260848 -72.229525 86.566453 91.742579 13.314597 11.19098 -33.699274 179.449863 10.756193 145.285326 6.669134 -6.658679 -0.643141 13.499973 -26.752032 -15.731523 -2.68634 4.226753 1.583637 7.648481 -11.731399 -1.73449 -151.476684 17.84174 137.538824 1.754706 13.190045 1.163626 -0.00872 -0.872093 -0.274064 -165.650607 -0.793263 171.710838 -97.894012 -47.452687 -96.133657 -155.952543 54.000172 -151.998398 13.015985 41.250126 -14.798846 -8.186856 -0.061689 3.946023 -172.744976 35.848701 -152.489654 -178.799186 8.698488 -145.324866 -11.110121 -11.092107 0.639674 -1.218539 -7.040759 9.048451 -10.211155 -18.05077 4.56389 -3.541524 -1.105942 -2.984761 -0.541241 -1.589941 0.294737 18.386132 38.6925 -12.141732 -0.004875 1.770451 -0.556181 165.922895 -1.813009 -172.337114 75.778902 -51.667921 74.249466 -10.618441 26.156448 -7.820439 -0.0 0.0 0.0 -0.0 -0.0 -0.0 2.512346 0.127625 22.075435 96.382494 -47.046576 -8.794343 -0.0 0.0 0.0 -0.0 -0.0 -0.0 -2.512346 0.127625 -22.075435 -96.382494 -47.046576 8.794343
83.2304 79.4699 -47.3888 -0.0 -0.0 0.0 0.0 0.0 0.0 0.0 -0.0 -0.0 0.245875 19.608241 -158.802917 7.579128 18.139248 157.548848 -0.0 -0.0 0.0 -0.0 -0.0 0.0 -80.1661 68.371792 83.260848 -68.490558 86.569819 87.996719 -174.16588 1.130461 178.296286 -1.190542 3.812261 -0.09089 178.339583 -19.018756 88.988607 -170.874801 -7.291131 95.347002 -83.732676 42.330462 69.989987 2.888571 7.772782 -13.165116 -160.937898 -7.488186 143.367502 -163.915116 -16.503111 143.82538 0.000474 0.063839 0.020056 -166.299936 -53.662539 178.744302 4.595084 13.36016 4.155384 -163.005524 55.22553 -148.927979 80.1661 68.371792 -83.260848 156.024567 0.011119 -179.053862 -164.572824 -77.569918 -126.712099 -172.186651 -12.084603 -144.405216 2.925532 2.862225 -0.520678 143.832562 -50.986046 -118.437716 -60.461659 -70.523647 -15.71111 64.628045 43.83322 -54.350261 171.805991 -40.921878 -145.170237 42.519319 57.215713 -39.380758 0.014868 -1.323148 0.415899 7.129968 44.40908 -9.143119 143.937873 8.265083 140.720099 -54.070334 81.712937 14.533362 -0.0 0.0 0.0 -0.0 -0.0 -0.0 2.512346 0.127625 22.075435 96.382494 -47.046576 -8.794343 -0.0 0.0 0.0 -0.0 -0.0 -0.0 -2.512346 0.127625 -22.075435 -96.382494 -47.046576 8.794343
82.9064 79.8514 -47.4537 -0.0 -0.0 0.0 0.0 0.0 0.0 0.0 -0.0 -0.0 0.245875 19.608241 -158.802917 7.579128 18.139248 157.548848 -0.0 -0.0 0.0 -0.0 -0.0 0.0 -80.1661 68.371792 83.260848 -72.229525 86.566453 91.742579 -62.243933 -75.456927 -88.527754 98.114212 -70.473273 82.232586 -178.927535 -16.453687 89.421826 148.391445 -48.822234 102.999351 -4.706866 7.223928 2.854949 -169.1018 -6.971443 110.977391 -89.835461 60.702148 81.262754 -27.856591 55.210153 22.278925 0.004672 0.917785 0.288305 -166.669008 -45.755344 177.625363 -24.989488 -37.659231 -24.060311 1.645498 0.003929 1.479254 13.015985 41.250126 -14.798846 -8.186856 -0.061689 3.946023 178.441391 61.218612 -146.578035 -170.822911 -16.05161 -143.936846 -6.463714 -6.452652 0.634888 -39.513703 -73.357793 20.920134 152.105085 -18.556554 -121.367907 -18.880166 6.371465 9.898098 36.036059 51.723116 -29.832321 89.976806 66.680668 -80.420352 72.350995 72.974965 -90.218005 80.47283 -72.153754 97.437734 156.864532 55.54159 150.329136 84.293998 -50.535398 84.534643 -0.0 0.0 0.0 -0.0 -0.0 -0.0 2.512346 0.127625 22.075435 96.382494 -47.046576 -8.794343 -0.0 0.0 0.0 -0.0 -0.0 -0.0 -2.512346 0.127625 -22.075435 -96.382494 -47.046576 8.794343
82.5863 80.1981 -47.5273 -0.0 -0.0 0.0 0.0 0.0 0.0 0.0 -0.0 -0.0 0.245875 19.608241 -158.802917 7.579128 18.139248 157.548848 -0.0 -0.0 0.0 -0.0 -0.0 0.0 -80.1661 68.371792 83.260848 -68.490558 86.569819 87.996719 -174.16588 1.130461 178.296286 -1.190542 3.812261 -0.09089 82.305236 -50.136196 32.954928 -57.562561 31.494149 19.415579 -19.170572 24.114561 13.380841 -173.922482 -15.251546 115.355223 68.983989 -80.15399 40.578188 -167.378488 -14.321945 140.738556 -73.625838 72.972031 91.55425 5.80001 0.635805 -14.814983 -152.200278 37.330087 -147.582714 -145.893729 11.732724 -140.725043 80.1661 68.371792 -83.260848 156.024567 0.011119 -179.053862 -164.572824 -77.569918 -126.712099 -172.186651 -12.084603 -144.405216 78.030619 38.689342 -42.41267 145.23931 -30.440199 -83.096854 27.421557 30.63922 -20.098782 13.384838 21.934793 1.962359 166.119123 -24.039701 -145.07787 5.172841 26.381742 -7.59861 145.111317 -0.66827 178.918345 -22.371711 34.866194 4.904343 134.875415 -13.759006 132.28595 39.477094 -50.059607 42.499763 -0.0 0.0 0.0 -0.0 -0.0 -0.0 2.512346 0.127625 22.075435 96.382494 -47.046576 -8.794343 -0.0 0.0 0.0 -0.0 -0.0 -0.0 -2.512346 0.127625 -22.075435 -96.382494 -47.046576 8.794343
